<?xml version="1.0" standalone="no"?>
<!DOCTYPE svg PUBLIC "-//W3C//DTD SVG 20010904//EN"
 "http://www.w3.org/TR/2001/REC-SVG-20010904/DTD/svg10.dtd">
<svg version="1.0" xmlns="http://www.w3.org/2000/svg"
 width="550.000000pt" height="550.000000pt" viewBox="0 0 550.000000 550.000000"
 preserveAspectRatio="xMidYMid meet">
<metadata>
Created by potrace 1.14, written by Peter Selinger 2001-2017
</metadata>
<g transform="translate(0.000000,550.000000) scale(0.100000,-0.100000)"
fill="#000000" stroke="none">
<path d="M2569 5475 c-2 -1 -22 -6 -44 -9 -42 -6 -49 -8 -105 -20 -50 -12
-184 -66 -191 -78 -3 -5 -10 -10 -15 -10 -18 -1 -40 -12 -81 -40 -23 -15 -44
-28 -47 -28 -3 0 -14 -8 -25 -17 -10 -10 -40 -36 -67 -58 -41 -34 -85 -78
-191 -191 -12 -13 -20 -24 -18 -24 5 0 -54 -84 -80 -112 -8 -10 -16 -21 -16
-25 -4 -20 -34 -73 -41 -73 -4 0 -8 -8 -8 -19 0 -10 -7 -24 -15 -31 -8 -6 -14
-15 -13 -18 1 -4 -3 -17 -10 -29 -7 -13 -10 -23 -7 -23 4 0 -1 -7 -9 -16 -9
-8 -14 -20 -11 -25 4 -5 1 -9 -6 -9 -7 0 -9 -3 -6 -6 3 -4 1 -16 -5 -28 -7
-11 -13 -24 -14 -28 -1 -5 -2 -9 -3 -10 -2 -2 -4 -14 -7 -27 -2 -14 -9 -30
-15 -38 -6 -7 -9 -13 -5 -13 3 0 1 -12 -5 -27 -6 -16 -13 -36 -15 -45 -2 -10
-6 -27 -9 -38 -27 -110 -30 -143 -30 -455 0 -282 6 -392 23 -420 4 -5 8 -21
10 -35 1 -14 7 -36 11 -50 73 -204 83 -230 93 -230 5 0 8 -3 7 -7 -2 -14 13
-53 20 -53 4 0 13 -16 21 -35 8 -19 17 -35 22 -35 4 0 8 -5 8 -12 0 -6 7 -19
15 -28 15 -16 10 -17 -65 -16 -118 2 -117 2 -116 -88 1 -42 -3 -78 -9 -80 -5
-3 -4 -5 2 -5 9 -1 10 -8 3 -25 -5 -13 -6 -27 -3 -30 9 -9 10 -50 1 -68 -5
-10 -5 -18 -1 -18 7 0 8 -192 3 -360 0 -19 1 -46 3 -60 2 -14 -1 -33 -5 -42
-5 -10 -5 -18 0 -18 12 0 9 -83 -3 -92 -7 -5 -7 -8 0 -8 8 0 12 -259 4 -280
-1 -3 0 -9 1 -15 6 -27 5 -52 -2 -67 -5 -10 -5 -18 -1 -18 4 0 8 -29 8 -65 0
-37 -4 -65 -10 -65 -7 0 -6 -3 0 -8 6 -4 10 -32 10 -62 l0 -55 138 -1 137 -1
1 43 c0 24 1 91 1 148 l1 103 43 47 c24 25 48 46 52 46 10 0 92 -127 92 -141
0 -6 4 -7 10 -4 5 3 10 1 10 -4 0 -6 34 -62 76 -125 l76 -114 156 3 c190 3
182 1 154 24 -27 23 -28 38 -3 46 21 6 20 8 -24 59 -5 6 -16 23 -24 38 -8 15
-18 25 -23 22 -4 -3 -8 3 -8 13 0 10 -9 25 -20 33 -11 8 -20 18 -20 22 0 10
-89 131 -102 139 -5 3 -10 10 -10 15 -1 10 -48 76 -63 86 -5 4 -6 8 -2 8 8 0
-7 21 -35 48 -10 9 -18 22 -18 29 0 7 -5 13 -10 13 -18 0 5 31 84 115 42 43
76 83 76 88 0 4 5 5 10 2 6 -3 10 -3 10 2 0 4 19 29 43 54 99 108 117 128 117
134 0 3 -12 5 -27 5 l-27 0 32 33 31 32 -168 0 -168 -1 -84 -89 c-46 -48 -100
-105 -119 -125 -19 -20 -52 -55 -72 -78 -21 -23 -39 -38 -41 -34 -3 4 -4 159
-4 345 l-1 339 57 -58 c31 -31 81 -75 111 -98 30 -22 58 -45 62 -51 4 -5 8 -6
8 -2 0 5 12 0 28 -11 37 -27 132 -74 132 -66 0 4 6 1 14 -5 28 -23 67 -26 416
-26 319 0 358 2 389 18 19 9 38 17 42 17 5 0 31 13 59 30 27 16 50 26 50 22 0
-4 4 -2 8 3 13 18 99 74 105 69 3 -3 8 4 12 15 3 12 11 19 16 16 5 -4 9 -1 9
4 0 6 4 11 9 11 9 0 133 121 183 180 15 17 42 54 59 81 18 27 36 49 41 49 5 0
6 5 3 10 -3 6 -2 10 4 10 5 0 13 -4 16 -10 3 -5 2 -10 -3 -10 -5 0 -12 -9 -15
-21 -4 -16 -3 -18 8 -9 10 8 13 7 11 -6 -1 -12 7 -17 27 -18 15 -1 27 2 27 6
0 4 9 6 20 5 11 -1 20 -5 20 -10 0 -5 7 -4 16 4 13 10 17 10 25 -2 7 -12 9
-12 9 1 0 13 1 13 10 0 5 -8 10 -10 10 -4 0 6 7 11 15 11 8 0 15 -5 15 -11 0
-7 3 -7 8 -1 9 13 62 15 62 2 0 -6 5 -6 13 0 6 5 19 9 27 8 8 0 18 4 22 10 4
5 8 1 8 -10 0 -11 4 -15 8 -10 11 15 32 17 32 3 0 -9 4 -8 10 2 9 13 10 13 10
0 0 -12 2 -12 9 -2 11 17 21 17 32 0 7 -10 9 -10 9 0 0 7 5 10 10 7 6 -3 10 0
10 7 0 10 2 10 9 -1 5 -7 13 -11 19 -7 6 4 10 -2 9 -14 -1 -11 -6 -20 -12 -21
-5 0 -1 -4 10 -9 14 -6 15 -9 5 -9 -9 -1 -17 -11 -18 -23 -2 -39 -10 -79 -16
-85 -3 -4 0 -13 7 -21 8 -10 8 -13 1 -9 -17 10 -26 -23 -12 -41 10 -12 10 -14
1 -8 -7 4 -13 4 -14 -1 -2 -12 -8 -54 -14 -91 -2 -19 -7 -38 -11 -43 -13 -21
-14 -59 -2 -59 9 0 9 -3 -1 -9 -8 -5 -16 -20 -19 -33 -2 -13 -5 -30 -6 -38 -2
-10 -14 -14 -35 -13 -21 1 -29 -2 -25 -9 5 -7 2 -8 -7 -3 -20 13 -49 13 -49 1
0 -7 -3 -8 -8 -1 -10 14 -183 14 -174 1 4 -8 1 -8 -9 0 -8 5 -35 10 -61 9 -26
0 -49 4 -52 10 -2 6 -54 10 -137 9 -175 -2 -167 -1 -175 -26 -4 -13 -18 -40
-31 -62 -14 -21 -20 -35 -14 -32 7 4 8 1 5 -8 -3 -9 -10 -16 -15 -16 -5 0 -9
-4 -9 -9 0 -5 -5 -22 -12 -38 -6 -15 -11 -31 -10 -35 1 -5 -2 -8 -8 -8 -5 0
-10 -4 -10 -9 0 -6 -17 -47 -38 -93 -21 -46 -47 -102 -57 -126 -10 -23 -21
-42 -24 -42 -5 0 -34 56 -36 70 -1 3 -18 38 -38 77 -21 40 -37 76 -36 79 0 4
-3 10 -8 13 -6 5 -73 132 -78 151 -8 27 -40 86 -52 99 -24 23 -317 24 -307 1
4 -8 6 -28 5 -45 -2 -30 15 -74 34 -87 5 -4 7 -8 3 -8 -7 0 110 -240 129 -265
4 -6 9 -17 11 -25 2 -8 9 -18 15 -22 7 -4 8 -8 3 -8 -5 0 -3 -6 3 -13 6 -8 8
-17 4 -20 -3 -4 -2 -7 3 -7 6 0 16 -16 24 -35 8 -19 18 -35 24 -35 5 0 7 -3 3
-6 -3 -4 1 -21 10 -38 10 -17 16 -34 15 -38 -1 -5 3 -8 8 -8 6 0 10 -9 10 -20
0 -11 3 -20 8 -20 8 0 32 -49 32 -67 0 -7 3 -13 8 -13 4 0 15 -18 24 -39 17
-39 17 -41 -8 -98 -45 -99 -63 -143 -63 -148 -1 -3 -10 -15 -21 -27 -11 -12
-20 -25 -20 -30 0 -4 -12 -33 -26 -65 -15 -32 -28 -64 -30 -71 -1 -7 -12 -34
-24 -60 -13 -26 -23 -51 -24 -57 -1 -5 -14 -36 -29 -69 -15 -32 -27 -60 -27
-62 0 -10 -174 -421 -182 -431 -6 -7 -8 -13 -4 -13 4 0 -1 -15 -11 -32 -9 -18
-18 -38 -19 -44 -1 -5 -11 -29 -22 -52 -11 -23 -17 -44 -14 -46 6 -3 236 -1
255 3 4 0 7 10 7 21 0 11 4 20 10 20 5 0 9 3 8 8 -1 6 7 29 29 82 3 8 7 20 9
25 1 6 8 21 15 35 l14 25 212 0 213 0 20 -42 c11 -24 20 -52 20 -63 0 -12 5
-18 10 -15 5 3 10 -2 10 -12 1 -10 9 -34 18 -53 l17 -35 133 -1 c72 0 132 3
132 8 0 4 -9 24 -20 43 -11 20 -18 40 -15 45 2 4 -2 13 -10 20 -8 7 -15 23
-15 36 0 13 -4 24 -8 24 -4 0 -16 24 -27 52 -10 29 -29 78 -43 108 -13 30 -28
64 -32 75 -4 11 -20 46 -34 78 -14 32 -26 64 -26 72 0 7 -5 17 -10 20 -6 4 -8
11 -5 16 4 5 1 9 -4 9 -6 0 -10 3 -9 7 1 5 -3 18 -10 31 -7 12 -10 22 -7 22 4
0 -2 15 -13 33 -12 17 -21 34 -21 37 0 9 -13 43 -42 107 -15 34 -25 64 -21 67
3 3 1 6 -4 6 -17 0 -13 40 8 88 12 26 22 49 23 52 1 3 9 22 18 42 10 21 17 42
17 47 0 5 5 11 10 13 6 2 12 14 15 27 2 12 10 30 17 39 7 8 11 16 9 16 -1 1 8
26 22 56 14 30 35 78 47 105 12 28 34 75 47 105 14 30 26 60 26 67 0 7 4 10 9
7 4 -3 8 2 8 11 0 9 4 14 9 10 5 -3 12 -1 16 5 4 6 12 7 18 3 19 -12 36 -12
43 -2 3 6 11 5 20 -2 11 -9 14 -8 14 2 0 12 2 12 9 0 6 -9 11 -10 15 -2 4 6
13 8 19 4 19 -12 36 -12 43 -2 3 6 11 5 20 -2 11 -9 14 -8 14 2 0 9 3 10 8 4
9 -13 153 -15 145 -2 -4 6 -1 7 8 2 20 -13 72 -14 87 -2 8 6 12 6 12 -2 0 -18
17 -4 23 19 3 13 1 18 -5 13 -7 -4 -8 -1 -2 8 5 8 9 17 10 22 1 4 2 8 4 10 8
10 7 43 -3 49 -8 5 -7 8 4 8 13 0 17 9 15 34 -1 19 2 32 6 30 5 -3 8 1 8 10 0
8 -6 17 -12 19 -8 3 -6 6 5 6 13 1 16 7 13 25 -2 14 2 30 9 36 9 8 11 20 5 40
-7 23 -5 28 6 23 12 -4 12 0 4 21 -6 18 -6 25 0 21 6 -3 10 2 11 12 4 91 19
112 77 111 26 -1 53 2 60 6 7 4 12 3 12 -1 0 -7 43 -9 60 -3 3 1 16 1 30 0 62
-6 106 -5 123 2 9 5 17 5 17 1 0 -10 63 -9 78 1 7 4 12 4 12 -1 0 -4 11 -8 25
-8 14 0 25 3 25 7 0 4 7 5 15 2 11 -4 15 1 16 17 1 13 3 35 6 49 2 14 5 33 6
43 1 9 5 17 9 17 11 0 6 23 -7 32 -6 5 -3 8 6 8 10 0 15 8 14 23 -1 12 3 28 9
36 9 12 8 13 -4 6 -13 -8 -13 -7 -1 8 7 9 11 17 7 17 -3 0 -1 12 5 28 6 15 11
39 11 55 0 15 4 27 9 27 6 0 8 4 5 9 -3 4 -1 22 3 39 6 20 5 34 -2 42 -9 9 -9
11 -1 7 17 -10 23 37 7 51 -7 7 -13 9 -13 5 0 -5 -9 -9 -20 -10 -11 -1 -20 3
-20 8 0 6 -6 7 -12 2 -22 -13 -50 -14 -42 -1 5 7 3 8 -7 2 -19 -11 -78 -13
-85 -2 -3 4 -14 4 -24 -2 -13 -7 -21 -7 -25 0 -4 6 -11 7 -17 4 -19 -12 -68
-12 -68 0 0 7 -3 7 -8 1 -9 -14 -85 -14 -94 -1 -5 7 -8 7 -8 -2 0 -10 -5 -10
-21 -1 -17 9 -20 8 -13 -3 4 -7 -2 -4 -14 6 -17 14 -19 22 -11 32 6 8 9 21 5
29 -3 8 -1 15 5 15 6 0 7 4 4 10 -3 5 -1 18 4 28 7 13 6 23 -2 32 -9 10 -9 11
2 5 11 -6 13 -2 9 18 -3 17 -1 24 5 20 6 -4 8 0 4 10 -3 10 -3 17 1 17 4 0 8
8 9 18 1 40 10 89 17 100 4 7 9 32 10 56 2 24 6 48 10 54 3 6 0 13 -6 15 -8 4
-7 6 3 6 12 1 16 9 15 26 -1 27 -3 28 -91 25 -33 -1 -67 -1 -75 -1 -8 1 -26 1
-40 0 -14 0 -32 0 -40 0 -8 1 -26 1 -40 0 -14 0 -32 0 -40 0 -35 3 -46 2 -60
-1 -11 -2 -15 5 -14 27 1 17 4 37 6 45 11 38 21 87 24 110 1 14 3 25 4 25 5 0
19 116 24 191 2 34 6 67 10 73 4 7 3 18 -4 26 -7 8 -7 15 -1 19 6 4 6 18 1 35
-5 18 -4 33 3 40 6 6 7 15 1 23 -5 7 -9 33 -9 58 0 25 -4 48 -10 52 -6 5 -5 8
3 8 8 0 10 5 6 12 -4 7 -9 26 -11 43 -3 29 -9 68 -18 110 -2 11 -7 36 -10 55
-4 19 -10 37 -14 40 -4 3 -6 12 -6 20 1 8 -1 20 -4 25 -3 6 -7 18 -8 28 -2 10
-10 31 -18 48 -9 16 -13 29 -9 29 4 0 1 7 -6 15 -7 8 -10 15 -6 15 3 0 -3 16
-14 35 -11 20 -20 42 -20 49 0 7 -7 19 -15 26 -9 7 -13 15 -11 18 3 3 -4 18
-15 33 -11 16 -17 29 -12 29 4 0 3 4 -2 8 -6 4 -29 36 -52 72 -24 36 -54 77
-68 92 -14 15 -25 29 -25 32 0 3 -30 33 -66 68 -89 86 -92 88 -100 88 -4 0
-17 11 -30 26 -13 14 -24 23 -24 20 0 -3 -22 8 -49 24 -26 17 -52 30 -56 30
-5 0 -16 6 -24 13 -9 8 -29 19 -46 24 -16 6 -39 14 -50 19 -11 4 -31 9 -45 11
-13 2 -27 8 -30 11 -3 4 -12 7 -20 7 -8 -1 -19 1 -25 4 -5 3 -23 6 -40 7 -16
1 -30 3 -30 4 0 8 -319 23 -326 15z m1596 -1955 c3 -5 1 -10 -4 -10 -6 0 -11
5 -11 10 0 6 2 10 4 10 3 0 8 -4 11 -10z m-355 -100 c0 -5 -2 -10 -4 -10 -3 0
-8 5 -11 10 -3 6 -1 10 4 10 6 0 11 -4 11 -10z m230 4 c0 -8 -19 -13 -24 -6
-3 5 1 9 9 9 8 0 15 -2 15 -3z m-230 -204 c0 -5 -5 -10 -11 -10 -5 0 -7 5 -4
10 3 6 8 10 11 10 2 0 4 -4 4 -10z m195 -59 c3 -5 2 -12 -3 -15 -5 -3 -9 1 -9
9 0 17 3 19 12 6z m-195 -21 c0 -5 -5 -10 -11 -10 -5 0 -7 5 -4 10 3 6 8 10
11 10 2 0 4 -4 4 -10z m280 0 c0 -5 -2 -10 -4 -10 -3 0 -8 5 -11 10 -3 6 -1
10 4 10 6 0 11 -4 11 -10z m395 -160 c3 -5 1 -10 -4 -10 -6 0 -11 5 -11 10 0
6 2 10 4 10 3 0 8 -4 11 -10z m80 -200 c3 -5 1 -10 -4 -10 -6 0 -11 5 -11 10
0 6 2 10 4 10 3 0 8 -4 11 -10z m-435 -200 c0 -5 -2 -10 -4 -10 -3 0 -8 5 -11
10 -3 6 -1 10 4 10 6 0 11 -4 11 -10z m80 0 c0 -5 -2 -10 -4 -10 -3 0 -8 5
-11 10 -3 6 -1 10 4 10 6 0 11 -4 11 -10z m75 0 c3 -5 1 -10 -4 -10 -6 0 -11
5 -11 10 0 6 2 10 4 10 3 0 8 -4 11 -10z m-680 -319 c3 -5 2 -12 -3 -15 -5 -3
-9 1 -9 9 0 17 3 19 12 6z m122 -256 c0 -8 -4 -12 -9 -9 -5 3 -6 10 -3 15 9
13 12 11 12 -6z m-791 -953 c6 -4 24 -41 40 -82 15 -41 33 -78 39 -82 5 -4 7
-8 2 -8 -4 0 0 -14 8 -31 9 -17 14 -33 11 -37 -7 -6 -214 -10 -232 -4 -8 2 -7
12 3 33 8 16 16 35 17 42 1 7 7 22 14 33 6 12 8 24 5 28 -3 3 -1 6 5 6 7 0 12
6 12 13 0 6 9 31 20 55 18 41 33 50 56 34z"/>
<path d="M4520 4054 c0 -12 -3 -15 -8 -8 -7 12 -177 13 -188 1 -4 -4 -1 -14 6
-22 11 -13 11 -16 0 -13 -8 2 -14 -5 -15 -17 0 -11 -4 -25 -8 -32 -4 -7 0 -17
10 -23 16 -10 16 -11 1 -6 -10 3 -20 1 -23 -4 -4 -6 -1 -10 5 -10 8 0 8 -6 0
-20 -6 -11 -8 -25 -5 -30 3 -6 2 -10 -2 -10 -5 0 -9 -8 -9 -17 0 -10 -4 -29
-8 -42 -6 -18 -5 -22 5 -16 8 5 6 0 -3 -11 -14 -16 -15 -23 -5 -33 9 -10 9
-12 -2 -9 -13 3 -18 -12 -22 -74 -1 -16 -6 -28 -12 -28 -5 0 -4 -6 2 -14 9
-11 9 -16 0 -21 -8 -6 -7 -10 2 -16 11 -7 10 -9 -4 -9 -11 0 -17 -6 -15 -12 6
-16 58 -18 58 -3 0 6 3 6 8 -1 9 -15 63 -15 81 0 12 8 13 8 7 -2 -5 -9 2 -11
28 -10 20 2 36 8 36 13 0 6 3 6 8 -1 7 -11 304 -15 297 -4 -2 3 0 12 5 20 5 8
4 22 -2 33 -7 14 -7 17 1 13 6 -4 11 -4 12 1 0 4 2 16 4 26 2 13 -1 17 -11 13
-9 -3 -12 -1 -9 4 3 6 12 10 18 10 11 0 15 22 18 83 0 9 4 17 8 17 4 0 7 10 6
23 -1 12 1 27 4 32 9 12 8 26 -2 42 -6 9 -3 11 10 6 16 -6 17 -5 3 12 -12 15
-12 17 -1 10 11 -6 13 -4 8 7 -3 9 -3 19 0 22 4 3 8 18 10 33 4 32 11 68 13
68 1 0 3 7 5 16 3 17 -29 20 -54 5 -10 -6 -12 -5 -7 2 5 8 -1 11 -18 10 -15
-1 -26 -7 -26 -13 0 -5 -4 -3 -10 5 -5 8 -12 11 -16 7 -4 -4 -13 -2 -21 4 -10
9 -13 7 -14 -7 0 -11 -3 -14 -6 -6 -2 6 -11 12 -19 12 -8 0 -14 -6 -14 -12 0
-10 -2 -10 -8 -1 -9 14 -52 13 -52 -2 0 -5 -4 -3 -10 5 -5 8 -12 11 -16 7 -4
-4 -13 -2 -21 4 -10 9 -13 7 -13 -7z m-70 -74 c0 -5 -2 -10 -4 -10 -3 0 -8 5
-11 10 -3 6 -1 10 4 10 6 0 11 -4 11 -10z m77 -405 c0 -8 -4 -12 -9 -9 -5 3
-6 10 -3 15 9 13 12 11 12 -6z"/>
<path d="M758 2955 c-2 -2 -15 -6 -28 -8 -27 -4 -39 -8 -120 -40 -53 -20 -63
-26 -95 -54 -7 -7 -17 -13 -21 -13 -12 0 -82 -78 -76 -84 3 -3 0 -6 -6 -6 -7
0 -12 -7 -12 -15 0 -8 -4 -15 -10 -15 -5 0 -10 -7 -10 -15 0 -8 -5 -15 -12
-15 -6 0 -8 -3 -5 -7 4 -3 2 -12 -4 -20 -6 -7 -8 -13 -4 -13 4 0 2 -6 -4 -13
-25 -31 -33 -234 -11 -303 19 -60 59 -125 100 -164 35 -32 93 -70 106 -69 3 0
15 -6 27 -13 12 -8 42 -20 67 -28 25 -7 50 -16 55 -19 6 -3 21 -7 34 -9 14 -2
32 -7 40 -11 9 -5 26 -7 39 -6 12 1 22 -3 22 -8 0 -5 9 -7 20 -4 10 3 20 1 22
-3 2 -5 15 -10 30 -12 15 -2 30 -7 34 -11 4 -4 16 -7 26 -7 10 0 18 -4 18 -10
0 -5 6 -7 13 -4 16 6 57 -40 57 -64 -1 -9 -9 -27 -20 -40 -18 -22 -100 -65
-130 -68 -39 -4 -75 -6 -80 -4 -3 0 -27 3 -55 6 -27 3 -52 8 -55 12 -3 4 -20
15 -38 23 -32 15 -82 72 -82 93 0 6 -4 17 -9 25 -7 11 -21 7 -72 -17 -35 -17
-71 -32 -79 -34 -8 -2 -17 -6 -20 -9 -9 -10 -72 -39 -86 -39 -17 0 -23 -21
-12 -49 6 -17 5 -27 -3 -32 -15 -9 27 -93 69 -141 40 -45 152 -128 173 -128
11 0 19 -4 19 -8 0 -10 120 -46 127 -38 3 3 14 1 25 -5 19 -10 164 -13 208 -4
14 3 37 7 51 10 66 12 229 88 229 106 0 5 4 9 10 9 10 0 77 66 98 96 13 19 44
83 48 97 1 4 3 9 4 12 1 3 4 10 5 15 1 6 4 11 5 13 11 9 5 219 -7 259 -15 53
-50 118 -63 118 -5 0 -11 8 -14 18 -6 16 -125 96 -140 93 -3 0 -23 5 -43 13
-21 8 -76 24 -123 36 -162 43 -225 62 -265 83 -22 12 -43 20 -47 19 -5 -1 -8
5 -8 15 0 9 -3 13 -7 10 -3 -4 -11 3 -18 16 -12 23 -7 39 25 80 23 29 124 75
152 69 4 -1 31 -4 60 -6 66 -4 140 -38 187 -87 l37 -37 30 21 c16 12 32 26 36
32 5 6 8 6 8 0 0 -6 3 -6 8 1 4 6 37 31 73 55 61 41 65 46 56 67 -8 17 -8 29
0 42 10 14 5 25 -27 61 -22 24 -40 47 -40 52 0 4 -6 7 -13 7 -8 0 -22 9 -32
20 -10 11 -24 20 -31 20 -7 0 -18 8 -23 18 -6 9 -11 13 -11 8 0 -4 -10 -2 -22
6 -23 15 -77 33 -90 30 -5 -1 -8 2 -8 6 0 4 -8 9 -17 10 -38 4 -242 10 -245 7z"/>
<path d="M4428 2114 c-2 -1 -23 -4 -46 -5 -24 -2 -46 -7 -48 -11 -3 -4 -12 -8
-20 -8 -29 0 -88 -61 -118 -120 -42 -84 -27 -195 41 -303 13 -21 28 -49 33
-62 5 -14 14 -25 19 -25 6 0 7 -7 4 -17 -4 -11 -3 -14 5 -9 7 4 12 1 12 -7 0
-8 7 -20 15 -27 9 -7 23 -28 31 -46 9 -19 20 -34 25 -34 5 0 9 -5 9 -11 0 -13
25 -39 38 -39 5 0 17 11 26 25 9 14 13 25 10 25 -4 0 2 8 12 18 19 17 68 87
74 107 2 6 12 19 22 29 17 19 22 31 19 49 0 4 3 7 9 7 10 0 44 69 42 83 -1 4
2 7 6 7 4 0 8 10 9 22 1 11 8 25 15 29 7 5 10 9 7 9 -4 0 -3 16 1 34 4 19 5
37 2 40 -3 3 -7 20 -9 38 -3 32 -37 95 -70 133 -18 20 -103 71 -103 62 0 -3
-16 -1 -34 3 -19 4 -36 6 -38 4z m49 -159 c13 -4 20 -11 17 -16 -3 -5 3 -9 12
-9 10 0 14 -3 11 -7 -4 -3 -2 -12 4 -20 6 -7 8 -13 4 -13 -4 0 -2 -6 4 -14 13
-15 -4 -76 -21 -76 -5 0 -7 -4 -3 -9 3 -5 -4 -12 -15 -16 -11 -3 -20 -10 -20
-14 0 -4 -19 -8 -42 -9 -49 -3 -95 28 -102 69 -3 13 -5 26 -6 29 -2 3 -1 10 0
15 1 6 4 19 6 30 2 11 11 25 19 31 8 6 15 17 15 25 0 12 2 12 9 1 7 -11 9 -11
14 1 6 15 48 16 94 2z"/>
<path d="M1897 1454 c-1 -1 -20 -3 -42 -5 -22 -1 -44 -5 -50 -8 -11 -6 -13 -7
-60 -16 -16 -3 -37 -12 -45 -19 -8 -8 -25 -17 -37 -20 -13 -4 -23 -12 -23 -17
0 -5 -7 -9 -15 -9 -8 0 -45 -31 -82 -68 -70 -70 -135 -183 -149 -253 -3 -19
-8 -45 -11 -59 -11 -59 -3 -206 13 -232 3 -4 7 -18 9 -30 6 -34 47 -118 57
-118 5 0 7 -4 4 -9 -7 -11 21 -48 95 -121 55 -55 190 -137 208 -125 5 3 12 1
16 -5 3 -5 19 -10 34 -10 15 0 32 -5 39 -12 7 -7 12 -8 12 -3 0 6 28 10 63 11
70 0 117 9 162 29 16 7 40 16 53 20 12 3 22 11 22 16 0 5 5 9 11 9 22 0 129
92 162 139 16 25 16 25 -41 79 -31 29 -73 66 -92 80 -19 15 -41 33 -49 40 -11
10 -16 10 -29 0 -9 -7 -13 -8 -9 -2 3 6 -8 19 -25 29 -17 10 -39 26 -49 36
-18 18 -20 18 -60 -5 -44 -26 -82 -26 -110 0 -8 8 -20 14 -26 14 -5 0 -10 6
-11 13 -11 83 -6 114 24 144 22 23 89 28 116 9 22 -16 26 -14 93 43 26 21 51
58 47 69 -4 13 26 47 35 39 6 -6 50 31 46 39 -2 2 5 12 15 22 36 38 82 92 82
96 0 24 -174 139 -226 149 -10 2 -30 7 -44 10 -26 7 -128 15 -133 11z"/>
<path d="M4827 1444 c-1 -1 -18 -4 -37 -7 -64 -9 -140 -30 -140 -39 0 -4 -9
-8 -19 -8 -11 0 -26 -6 -33 -13 -7 -8 -18 -16 -24 -18 -23 -8 -92 -78 -99 -98
-3 -12 -11 -21 -17 -21 -6 0 -9 -2 -6 -6 3 -3 -2 -26 -11 -52 -15 -39 -21
-137 -11 -162 1 -3 2 -8 1 -12 0 -5 3 -8 9 -8 6 0 10 -9 10 -20 0 -11 5 -20
10 -20 6 0 10 -5 10 -11 0 -17 60 -71 105 -95 36 -19 134 -56 160 -59 6 -1 12
-3 15 -4 3 -2 13 -4 23 -6 53 -10 156 -47 166 -59 7 -8 16 -28 21 -45 7 -26 5
-35 -20 -61 -35 -38 -73 -52 -130 -49 -54 4 -88 19 -121 56 -25 29 -29 35 -29
53 0 22 -143 -16 -173 -46 -4 -4 -18 -9 -30 -11 -64 -10 -57 -61 17 -136 64
-63 82 -78 90 -70 3 4 6 1 6 -6 0 -7 5 -9 10 -6 6 3 10 1 10 -4 0 -6 8 -11 18
-11 10 0 22 -3 26 -7 3 -4 12 -8 19 -9 7 -1 28 -6 47 -10 51 -10 220 -11 220
0 0 5 3 7 6 3 7 -7 99 20 144 43 19 10 51 32 70 49 19 17 38 31 43 31 4 0 7 6
7 13 0 8 8 21 18 31 11 9 25 35 32 59 15 47 21 157 9 157 -5 0 -6 6 -3 14 3 8
0 17 -5 21 -6 3 -9 11 -6 16 4 5 1 9 -4 9 -6 0 -11 6 -11 13 0 19 -79 99 -91
91 -5 -3 -9 -1 -9 4 0 10 -26 21 -70 29 -13 2 -29 8 -35 12 -5 5 -35 14 -65
20 -30 7 -62 15 -70 18 -8 3 -26 8 -40 10 -14 2 -29 8 -35 14 -5 5 -17 9 -27
9 -10 0 -18 4 -18 9 0 5 -10 11 -23 15 -53 13 -50 105 5 151 28 24 38 26 83
22 55 -5 133 -39 141 -62 7 -17 32 -27 47 -18 7 4 22 8 34 9 12 0 28 8 37 17
9 9 25 19 36 22 11 3 20 10 20 13 0 4 16 16 35 26 19 11 35 24 35 31 0 15 -65
85 -79 85 -7 0 -10 4 -7 8 4 6 -104 65 -124 67 -3 1 -23 5 -45 9 -35 7 -123
14 -128 10z"/>
<path d="M3565 1420 c-3 -6 -10 -8 -15 -5 -5 3 -11 -3 -13 -12 -4 -15 -2
-1007 2 -1024 1 -7 553 -6 566 2 6 4 18 5 28 4 9 -2 17 1 17 5 0 5 13 11 29
15 16 3 51 26 77 51 26 24 51 44 56 44 4 0 5 6 2 14 -3 7 2 21 11 29 34 35 49
141 30 222 -11 50 -37 96 -77 137 -41 42 -44 50 -25 70 28 30 39 49 57 97 12
33 14 51 7 51 -8 0 -8 3 1 12 8 8 8 17 1 30 -6 11 -8 22 -6 25 16 16 -30 108
-80 160 -24 25 -113 78 -113 67 0 -4 -6 -2 -12 4 -18 14 -534 17 -543 2z m448
-209 c9 -1 30 -13 46 -28 37 -36 36 -96 -2 -129 -22 -19 -36 -21 -143 -20
l-119 1 0 80 c-1 44 2 85 6 90 6 8 79 10 212 6z m-84 -396 c6 -3 11 -2 11 2 0
10 77 9 87 0 3 -4 13 -7 22 -7 18 -1 50 -40 58 -73 12 -51 2 -86 -43 -146 -2
-2 -18 -5 -36 -7 -18 -2 -38 -6 -44 -8 -6 -2 -17 -1 -24 4 -7 4 -24 5 -39 1
-14 -4 -39 -4 -56 -1 -16 4 -38 3 -47 -2 -10 -5 -19 -5 -19 -1 -5 32 -3 240 3
237 4 -2 9 -1 11 4 6 9 101 7 116 -3z"/>
</g>
</svg>
